<svg xmlns="http://www.w3.org/2000/svg" viewBox="0 0 1920 1080"><defs><style>.cls-1,.cls-11{fill:#fff;}.cls-2{fill:#263238;}.cls-3{opacity:0.3;}.cls-4{fill:#ebebeb;}.cls-5{fill:#f5f5f5;}.cls-6,.cls-8,.cls-9{fill:#ff725e;}.cls-7{fill:#fafafa;}.cls-8{stroke:#f5f5f5;stroke-miterlimit:10;stroke-width:5px;}.cls-11,.cls-9{font-size:35px;font-family:BowlbyOne-Regular, Bowlby One;}.cls-10{letter-spacing:-0.01em;}</style></defs><g id="Popcorns_Box_" data-name="Popcorns Box

"><path class="cls-1" d="M1021.7,437.24a18.17,18.17,0,0,0,7.94-30.08,14,14,0,0,0-18-16.15,22.17,22.17,0,0,0-32.49,19.65,34.89,34.89,0,1,0,4.27,59.54c2-1.41,3.9-3.06,6.25-3.7,3.81-1,7.73.81,11.45,2.16,7.26,2.62,15.5,3.36,22.66.47s12.9-9.95,12.79-17.68S1029.37,436.36,1021.7,437.24Z"/><path class="cls-2" d="M1021.7,437.24a10.91,10.91,0,0,1,3.53.07,14.06,14.06,0,0,1,8.43,5.42,15.16,15.16,0,0,1,3,6.72,15.79,15.79,0,0,1-1.1,8.68,21.93,21.93,0,0,1-16.33,12.74,32.32,32.32,0,0,1-12.42-.17,42.83,42.83,0,0,1-6.37-1.82,39.12,39.12,0,0,0-6.41-2,9.05,9.05,0,0,0-6.48,1.09c-2,1.18-3.85,2.81-6,4.08A36.4,36.4,0,0,1,951,474.94a34.44,34.44,0,0,1-13.86-9.4,36.72,36.72,0,0,1-8.25-15.26,34,34,0,0,1,.22-17.85,37.39,37.39,0,0,1,7.79-14.34,34.15,34.15,0,0,1,13-9.15,36.45,36.45,0,0,1,29.49,1.25l-.77.47a22.67,22.67,0,0,1,33.23-20l-.34,0A14.4,14.4,0,0,1,1030,407.23l-.09-.31a18.85,18.85,0,0,1,5,14.72,17.88,17.88,0,0,1-4.89,10.58,18.42,18.42,0,0,1-6,4.23,13.57,13.57,0,0,1-2.38.79c-.08,0,.82-.29,2.3-1a18.61,18.61,0,0,0,5.76-4.3,17.58,17.58,0,0,0,4.62-10.38,18.31,18.31,0,0,0-5-14.19l-.12-.13,0-.18a13.62,13.62,0,0,0-17.51-15.66l-.18.05-.16-.08a22.29,22.29,0,0,0-20.36.14,22.05,22.05,0,0,0-11.41,19.12v.85l-.76-.38a35.35,35.35,0,0,0-28.6-1.16,33,33,0,0,0-12.55,8.86,36.46,36.46,0,0,0-7.54,13.9A33,33,0,0,0,930,450a35.77,35.77,0,0,0,8,14.81,33.34,33.34,0,0,0,13.41,9.12A35.43,35.43,0,0,0,981,471.17c2.1-1.21,3.91-2.8,6-4.06a10,10,0,0,1,7.12-1.17,39,39,0,0,1,6.56,2.1,41.46,41.46,0,0,0,6.23,1.81,31.51,31.51,0,0,0,12.1.24,21.26,21.26,0,0,0,15.9-12.2,15.24,15.24,0,0,0,1.15-8.35,14.66,14.66,0,0,0-2.81-6.55,14,14,0,0,0-8.13-5.46A16.37,16.37,0,0,0,1021.7,437.24Z"/><g class="cls-3"><path d="M976.18,441.45c-1-7.47,1.08-19.21,2.7-23.06-5.57,6.37-7.9,12.68-6.59,24.25,1,8.91,7.51,16.64,15.34,18.88C982.51,456.57,977.16,448.92,976.18,441.45Z"/></g><path class="cls-2" d="M1016.82,436.75s-.15.45-.7,1.08a7.7,7.7,0,0,1-3,2,7.94,7.94,0,0,1-5.55.07,8.46,8.46,0,0,1-5-4.95l.46.35a23,23,0,0,1-7.36-1.8,17.4,17.4,0,0,1-7.55-6.06,14.56,14.56,0,0,1-2.44-7.54,11.89,11.89,0,0,1,1-5.24,4.27,4.27,0,0,1,1.07-1.63c.23.07-1.58,2.46-1.26,6.83a14.18,14.18,0,0,0,2.49,7,17,17,0,0,0,7.15,5.62,22.82,22.82,0,0,0,7,1.77l.34,0,.12.32a7.64,7.64,0,0,0,4.32,4.46,7.37,7.37,0,0,0,5,.16A11.12,11.12,0,0,0,1016.82,436.75Z"/><path class="cls-2" d="M988.63,463a7.18,7.18,0,0,1-1.57-1.33,48.43,48.43,0,0,1-3.8-4.12,38.85,38.85,0,0,1-4.63-7,31.18,31.18,0,0,1-3.09-9.78,42.26,42.26,0,0,1,1.38-18.42,35.32,35.32,0,0,1,2-5.24,6.26,6.26,0,0,1,1-1.77c.18.08-1.14,2.7-2.33,7.22a45.57,45.57,0,0,0-1,18.05A35,35,0,0,0,983.88,457C986.72,460.76,988.77,462.85,988.63,463Z"/><path class="cls-2" d="M1032.27,460.35c0,.14-1.29.46-3.46.66a23.46,23.46,0,0,1-8.52-.69,14.15,14.15,0,0,1-7.18-4.69c-1.36-1.79-1.61-3.2-1.49-3.23s.68,1.18,2.1,2.71a15.36,15.36,0,0,0,6.89,4.13,29.89,29.89,0,0,0,8.17,1C1030.91,460.22,1032.25,460.18,1032.27,460.35Z"/><path class="cls-4" d="M910.62,482.66c-4.27-12.27-22.5-8-30.44-1a22.78,22.78,0,0,0-7.53,12,17.87,17.87,0,0,0,18.92,21.6c-1.32,3.9,2,8.35,6.06,9s8.16-2,10.18-5.56A20.71,20.71,0,0,0,917,532.3a12,12,0,0,0,9.78,20.8c.16,5.42,4.77,10.1,10.06,11.3s10.95-.61,15.29-3.86c4.66-3.48,8.15-8.89,8.14-14.7,0-8-6.31-14.49-12.17-20a33.09,33.09,0,0,0,12.5-8.86,44.36,44.36,0,0,0,4.71-6.59c.85-1.4,1.65-2.84,2.39-4.3,4.82-9.41,7.28-21.42,1.31-30.13-2.52-3.68-6.26-6.32-10-8.8-8.46-5.66-18.73-11.12-28.35-7.8-5.29,1.83-11.61,6-14.91,10.5-2.82,3.87-4.83,8-5.15,12.8"/><path class="cls-2" d="M910.62,482.66a13.59,13.59,0,0,1,.26-2.63,22.73,22.73,0,0,1,2.69-7.15,29.55,29.55,0,0,1,3.18-4.58,28.93,28.93,0,0,1,5-4.47,36.66,36.66,0,0,1,6.66-3.88,19.69,19.69,0,0,1,8.49-1.92c6.23,0,12.68,2.76,18.84,6.5A81.91,81.91,0,0,1,965,471a24.48,24.48,0,0,1,4.13,4.36,20.77,20.77,0,0,1,2.8,5.54,26.89,26.89,0,0,1,.59,12.79,45.77,45.77,0,0,1-4.37,12.73c-2.18,4-4.47,8.15-7.79,11.69a34.11,34.11,0,0,1-12,8.28l.17-.9a66.92,66.92,0,0,1,7.65,8.16,21.4,21.4,0,0,1,4.62,10.63,17,17,0,0,1-3.15,11.43,22.9,22.9,0,0,1-9.27,7.79c-4.35,2-9.58,2.64-14.06.66s-7.86-6.15-8-11l.63.54a12.58,12.58,0,0,1-10.22-21.75l.08.85a21.27,21.27,0,0,1-9.41-14l1,.16c-2.18,3.85-6.58,6.55-11,5.74a8.27,8.27,0,0,1-5.18-3.52,6.9,6.9,0,0,1-1-6l.49.62a18.31,18.31,0,0,1-19.15-22.94A23.46,23.46,0,0,1,880.41,481a29.47,29.47,0,0,1,10.8-5.38,24.12,24.12,0,0,1,9.67-.78,12.79,12.79,0,0,1,6.54,2.83l1,1c.28.32.48.68.7,1l.59.84c.12.28.23.54.34.78.39.92.56,1.41.56,1.41s-.26-.46-.69-1.35l-.37-.75-.6-.81c-.23-.29-.44-.62-.72-.93l-1-.91a12.59,12.59,0,0,0-6.42-2.64,23.93,23.93,0,0,0-9.47.9,29,29,0,0,0-10.52,5.35A22.87,22.87,0,0,0,873.2,493a17.47,17.47,0,0,0,18.33,21.81l.71,0-.23.67c-1.17,3.46,1.75,7.6,5.47,8.29s7.9-1.74,9.88-5.28l.69-1.24.26,1.4a20.24,20.24,0,0,0,9,13.3l.58.37-.51.47a11.5,11.5,0,0,0,9.35,19.86l.61-.09,0,.62c.14,4.32,3.32,8.27,7.37,10s9,1.27,13.14-.66a21.84,21.84,0,0,0,8.82-7.4,15.94,15.94,0,0,0,3-10.69,20.42,20.42,0,0,0-4.4-10.08,65.9,65.9,0,0,0-7.52-8l-.61-.58.78-.32a33,33,0,0,0,11.67-8c3.22-3.4,5.5-7.48,7.66-11.44a44.72,44.72,0,0,0,4.31-12.43,26.09,26.09,0,0,0-.51-12.33,20.36,20.36,0,0,0-6.61-9.52,84.51,84.51,0,0,0-9.14-6.4c-6.08-3.74-12.39-6.51-18.41-6.51a19.21,19.21,0,0,0-8.24,1.79,36.63,36.63,0,0,0-6.59,3.75,26.56,26.56,0,0,0-8.13,8.81,23.9,23.9,0,0,0-2.83,7c-.17.85-.28,1.5-.33,1.94A3.67,3.67,0,0,1,910.62,482.66Z"/><path class="cls-2" d="M944.38,517.33s-.06.19-.28.49a4.92,4.92,0,0,1-1.2,1.09,9.55,9.55,0,0,1-5.78,1.34,17.4,17.4,0,0,1-8.49-2.63c-2.86-1.79-5.44-5.45-4.86-9.67l.73.62a10.59,10.59,0,0,1-2.29.49,19.25,19.25,0,0,1-6.13-.54,10.16,10.16,0,0,1-5.25-2.46,10.4,10.4,0,0,1-2.52-9.2,19.54,19.54,0,0,1,2.32-6,7.85,7.85,0,0,1,1.32-1.94A11.2,11.2,0,0,1,911,491a21.89,21.89,0,0,0-1.92,6,9.65,9.65,0,0,0,2.45,8.32,9.25,9.25,0,0,0,4.77,2.14,18.88,18.88,0,0,0,5.77.5,10.06,10.06,0,0,0,2-.44l.86-.3-.13.91c-.52,3.62,1.71,7,4.32,8.67a17.47,17.47,0,0,0,8,2.7,9.87,9.87,0,0,0,5.52-.93A18.63,18.63,0,0,0,944.38,517.33Z"/><path class="cls-2" d="M931.65,526.33c0,.17-1-.06-2.62,0a14.19,14.19,0,0,0-5.85,1.75,28.55,28.55,0,0,0-5,3.69c-1.22,1.08-2,1.75-2.11,1.64s.45-1,1.55-2.2a19.37,19.37,0,0,1,5.06-4.12,12.06,12.06,0,0,1,6.38-1.55C930.75,525.69,931.7,526.21,931.65,526.33Z"/><path class="cls-2" d="M908.89,505.31c.31.1-.63,3.44-.8,7.65s.45,7.61.12,7.69-1.45-3.34-1.24-7.74S908.62,505.19,908.89,505.31Z"/><g class="cls-3"><path d="M940.07,519.72a14.47,14.47,0,0,1-10.67-2.26c-3-2.17-5.5-5.7-5.22-9.42-5.18,1.13-10.68.47-14.29-3.52,2.28,4.12,7.19,6.72,11.8,5.78a9.22,9.22,0,0,0,3.88,7.25,19.13,19.13,0,0,0,7.84,3.2c2.94.6,6.24.94,8.83-.59,2.94-1.74,4-3.9,5.42-6.52C945.39,516.44,943.42,519.17,940.07,519.72Z"/></g><path class="cls-5" d="M1130.17,520.17c-9.65-8.47-24.69-10.25-36-4.07-5-6.51-11-12.51-18.49-16s-16.53-4.24-23.84-.44-12.1,12.66-9.86,20.58a11.6,11.6,0,0,0,.87,20.67c-9.83-4-17.18,1.21-22.3,7.33s-5.77,15.36-2.26,22.53,10.7,12.19,18.5,13.9,16.08.28,23.32-3.08c7.89-3.66,14.94-10,17.48-18.33a36.47,36.47,0,0,0,33.46,15,35,35,0,0,0,28.41-23C1143.59,543.13,1139.83,528.64,1130.17,520.17Z"/><path class="cls-2" d="M1130.17,520.17a2.64,2.64,0,0,1,.43.35l1.21,1.09a29.52,29.52,0,0,1,4,4.9,34.2,34.2,0,0,1,5.34,22.83,31.85,31.85,0,0,1-6.35,15.53,36.11,36.11,0,0,1-15.67,11.82,34.12,34.12,0,0,1-22.07.83,37.31,37.31,0,0,1-19.86-14l.92-.15a28.8,28.8,0,0,1-10.08,14,41.13,41.13,0,0,1-16.34,7.64,33.84,33.84,0,0,1-18.63-.88A27.19,27.19,0,0,1,1018.35,572c-4.34-7.83-3.57-18.21,2.33-24.68a24.84,24.84,0,0,1,10.18-7.44,17.14,17.14,0,0,1,12.24.55l-.43,1a12.12,12.12,0,0,1-.89-21.6l-.24.58a17,17,0,0,1,.85-11,20.82,20.82,0,0,1,6.52-8.4c5.7-4.25,12.92-4.95,19-3.82a35.85,35.85,0,0,1,15.9,7.6,65.39,65.39,0,0,1,10.64,11.16l-.43-.08a31.26,31.26,0,0,1,15.82-3.62,33.38,33.38,0,0,1,11.8,2.56,31.93,31.93,0,0,1,6.53,3.74c.67.52,1.15,1,1.48,1.24a3.47,3.47,0,0,1,.48.44,2.76,2.76,0,0,1-.54-.37l-1.53-1.16a33,33,0,0,0-18.23-5.93,30.92,30.92,0,0,0-15.48,3.69l-.26.13-.17-.22a65.12,65.12,0,0,0-10.6-11A35,35,0,0,0,1067.8,498c-6-1.08-12.92-.34-18.31,3.72a19.73,19.73,0,0,0-6.18,8,15.93,15.93,0,0,0-.78,10.34l.11.39-.36.2a11.08,11.08,0,0,0,.84,19.73l-.43,1a16.08,16.08,0,0,0-11.47-.51,23.63,23.63,0,0,0-9.7,7.13c-5.57,6.09-6.31,16-2.19,23.41a26,26,0,0,0,14.13,11.66,32.63,32.63,0,0,0,18,.87,40.26,40.26,0,0,0,15.92-7.41,27.77,27.77,0,0,0,9.75-13.45l.31-1,.61.85a36.38,36.38,0,0,0,19.28,13.67,33.22,33.22,0,0,0,21.48-.72,35.4,35.4,0,0,0,15.39-11.47,31.33,31.33,0,0,0,6.33-15.15,33.75,33.75,0,0,0-1-13.39,34.13,34.13,0,0,0-4-9.18A36.91,36.91,0,0,0,1130.17,520.17Z"/><path class="cls-6" d="M1046.42,556.27c-2.26-2.32-4.73-3.36-4.72-6.6-4.1-.8-8,2-11,4.81a24.82,24.82,0,0,0-5.65,7.06,10.71,10.71,0,0,0-.55,8.81c.6,1.36,2,2.7,3.39,2.26.78-.25,1.4-1,2.22-1,1.24,0,1.69,1.6,2.33,2.67a4,4,0,0,0,7.18-3.59c2.22,2,5.81.72,8-1.25a8.22,8.22,0,0,0,3-4.8C1051,561.46,1048.68,558.59,1046.42,556.27Z"/><path class="cls-2" d="M1091.07,515.49a4.71,4.71,0,0,1,.51,1.72,16.73,16.73,0,0,1,.08,4.92c-.42,4.18-2.69,9.55-5.73,15s-5.35,10.59-6,14.58,0,6.5-.23,6.53a4.62,4.62,0,0,1-.49-1.73,16.74,16.74,0,0,1-.07-4.91c.44-4.18,2.73-9.55,5.76-15s5.34-10.59,5.94-14.59S1090.85,515.52,1091.07,515.49Z"/><path class="cls-6" d="M1078.09,520.54c-.5-2.18,1.26-6.06,1.28-6.73.06-1.66-3.1-1.15-4.49-.25s-2.39,2.3-3.76,3.24c-3.66,2.52-8.93,1.16-12.76,3.41-2.74,1.61-4.16,4.72-5.42,7.64-.5,1.14-.94,2.6-.07,3.49.6.61,1-.22,1.75-.53s1.85-1.06,2.62-1.42c5.29-2.5,10.47-2.28,16.86,1.28,1.29-2.93,4.83-5.6,8-5C1080.41,524.35,1078.56,522.62,1078.09,520.54Z"/><path class="cls-2" d="M1082.06,539.64c-.22.12-1.16-2.81-4.64-6a20,20,0,0,0-7-4.12,17.5,17.5,0,0,0-18.38,4,20.14,20.14,0,0,0-4.65,6.62c-1.87,4.31-1.52,7.37-1.78,7.34a6.25,6.25,0,0,1-.15-2.07,17.28,17.28,0,0,1,1.19-5.58,20.05,20.05,0,0,1,4.68-7.06,18,18,0,0,1,19.44-4.18,19.88,19.88,0,0,1,7.17,4.51,16.75,16.75,0,0,1,3.37,4.59A5.57,5.57,0,0,1,1082.06,539.64Z"/><path class="cls-2" d="M1083.35,510.49c.08.17-1,.66-2.11,2a11.38,11.38,0,0,0-2.56,6.22,5.69,5.69,0,0,0,.68,3.48,8.75,8.75,0,0,0,2,2.25c1.4,1.12,2.38,1.74,2.29,1.89s-1.16-.24-2.76-1.25a8.21,8.21,0,0,1-2.43-2.35,6.43,6.43,0,0,1-.92-4.12,10.65,10.65,0,0,1,3.11-6.67C1082.09,510.62,1083.32,510.38,1083.35,510.49Z"/><path class="cls-2" d="M1039.79,571.22c0-.23,2.13.73,5.19-.42a7.2,7.2,0,0,0,3.94-3.69,7.46,7.46,0,0,0-.06-6.49c-1.09-2.16-2.95-3.77-4.46-5.42a11.79,11.79,0,0,1-3.15-5.17,5.91,5.91,0,0,1,.39-4.08c.46-.88,1-1.17,1-1.12s-.29.45-.6,1.3a6.08,6.08,0,0,0,0,3.7,11.88,11.88,0,0,0,3.14,4.66c1.5,1.56,3.47,3.19,4.72,5.63a8.34,8.34,0,0,1,0,7.44,7.89,7.89,0,0,1-8.68,4.22C1040.22,571.56,1039.77,571.27,1039.79,571.22Z"/><g class="cls-3"><path d="M1091.47,518.7c-.3,4.89-2.16,9.55-4.31,13.95s-4.92,8.56-6.36,13.24-2.18,7.58-1.06,12.35a26.47,26.47,0,0,1,1.14-8.71,25.35,25.35,0,0,1,4-6.44c4.31-5.67,5.27-6.92,7-11.53C1093.23,527.92,1092.53,524.28,1091.47,518.7Z"/></g><path class="cls-1" d="M1036.31,532.68A19.14,19.14,0,0,0,1033,500.5c-3.18-1.58-7-2.43-9.12-5.3-1.36-1.86-1.73-4.24-2.33-6.46-1.85-6.87-6.84-13.3-13.75-15s-15.26,2.88-16,10a21.91,21.91,0,0,0-19.57,2.1c-5.69,3.74-8.79,9.95-10,17-11.31,9.19-15,25.63-8.13,38.47s23.4,19.59,37.31,15.26c-.71,9.43,6.18,18.87,15.38,21.08a20.8,20.8,0,0,0,23.27-11.8c8.42,1.05,17.09-5.28,18.66-13.62S1044.53,534.77,1036.31,532.68Z"/><path class="cls-2" d="M1036.31,532.68a13.75,13.75,0,0,1,3.3,1.16,18.05,18.05,0,0,1,9.54,13.84,15.48,15.48,0,0,1-1.48,8.56,18.33,18.33,0,0,1-6.75,7.38,17.27,17.27,0,0,1-10.91,2.56l.42-.24a20.64,20.64,0,0,1-8.29,9.43,21.2,21.2,0,0,1-13.36,3c-9.74-1-18.57-10.79-17.89-21.95l.68.54a33.07,33.07,0,0,1-27.73-4.44,31.27,31.27,0,0,1-10.28-11.16,32,32,0,0,1-2.72-7.34,32.38,32.38,0,0,1-.74-7.87,32.18,32.18,0,0,1,11.78-23.85l-.2.34a30.48,30.48,0,0,1,3.55-10.14,21.19,21.19,0,0,1,7.28-7.53A22.44,22.44,0,0,1,992,483.23l-.69.43a11.82,11.82,0,0,1,6.19-8.79,14.4,14.4,0,0,1,10.23-1.62,17.37,17.37,0,0,1,8.5,5,23.65,23.65,0,0,1,4.95,7.93c1.15,2.84,1.3,5.86,2.65,8.18s3.94,3.47,6.3,4.46a22.8,22.8,0,0,1,6.6,3.68,19.81,19.81,0,0,1,4.48,5.28,18.91,18.91,0,0,1,2.59,11.29,19.94,19.94,0,0,1-2.66,8.23,18.89,18.89,0,0,1-3.37,4.2,14.36,14.36,0,0,1-1.44,1.16,22.48,22.48,0,0,0,4.53-5.53,19.87,19.87,0,0,0,2.46-8.1,18.52,18.52,0,0,0-2.64-10.94,19.29,19.29,0,0,0-4.39-5.06,22.11,22.11,0,0,0-6.45-3.53c-2.35-1-5.14-2.11-6.69-4.73s-1.64-5.58-2.77-8.28a22.56,22.56,0,0,0-4.8-7.61,16.47,16.47,0,0,0-8.06-4.73,13.49,13.49,0,0,0-9.53,1.56,10.79,10.79,0,0,0-5.66,8l-.06.67-.63-.24a21.48,21.48,0,0,0-18.55,1.73,20.19,20.19,0,0,0-6.9,7.17,29.56,29.56,0,0,0-3.4,9.77l0,.21-.16.13a30.94,30.94,0,0,0-10.65,30.62,31.07,31.07,0,0,0,2.61,7,30.28,30.28,0,0,0,9.91,10.77A32,32,0,0,0,991.26,556l.73-.23-.06.77c-.69,10.53,7.75,20,17,20.93a20.31,20.31,0,0,0,12.8-2.85,19.85,19.85,0,0,0,8-9l.12-.28.3,0a16.51,16.51,0,0,0,10.43-2.38,17.52,17.52,0,0,0,6.55-7,14.85,14.85,0,0,0,1.52-8.22,17.26,17.26,0,0,0-2.17-6.77,17.55,17.55,0,0,0-6.93-6.93A27.9,27.9,0,0,0,1036.31,532.68Z"/><path class="cls-2" d="M992.1,555.05c-.13,0-.34-1.36,0-3.55a19.43,19.43,0,0,1,9.48-13.78c1.93-1.07,3.28-1.35,3.32-1.24s-1.16.72-2.9,1.91a23,23,0,0,0-5.8,5.78,22.71,22.71,0,0,0-3.32,7.48C992.35,553.71,992.28,555.05,992.1,555.05Z"/><path class="cls-2" d="M962.83,500.23c.27,0-1.22,3.83-.49,10a30.49,30.49,0,0,0,3.17,10.37,27.29,27.29,0,0,0,8.52,10c1.79,1.41,4.34,2.11,5.63,4.48a6.24,6.24,0,0,1,.44,3.57,25.76,25.76,0,0,0-.3,3.13,13.53,13.53,0,0,0,4.26,9.49,15.28,15.28,0,0,0,6.22,3.71c1.66.49,2.65.52,2.64.64s-.25.05-.72,0a9.85,9.85,0,0,1-2-.25,14.68,14.68,0,0,1-6.65-3.55,14.12,14.12,0,0,1-4.75-10.07c-.09-2.18.82-4.41-.09-6.2s-3.32-2.58-5.29-4.06a27.57,27.57,0,0,1-8.8-10.47,29.84,29.84,0,0,1-3-10.75,24.74,24.74,0,0,1,.43-7.51,15.36,15.36,0,0,1,.57-2A2,2,0,0,1,962.83,500.23Z"/><path class="cls-6" d="M1004.24,514.52c-1-1-2.29-1.76-3.36-2.72-4.37-3.95-5.06-10.94-9.67-14.61-4.28-3.41-11.16-2.52-14.85,1.53s-4.13,10.52-1.52,15.34a17.27,17.27,0,0,0,13.34,8.48c5.45.57,10.06,1,14.59-2.07,1.33.55,2.89-.68,3.1-2.11A4.73,4.73,0,0,0,1004.24,514.52Z"/><path class="cls-6" d="M1017,493.31a13,13,0,0,0-6.92-7.45c-1.65-.67-3.71-.84-5,.34a4.32,4.32,0,0,0-1.15,3.84,15.57,15.57,0,0,0,1.35,3.94,43.38,43.38,0,0,1,3.07,22.62l2.23,1.11c5-2.45,7.21-8.53,7.65-14.11A23.26,23.26,0,0,0,1017,493.31Z"/><path class="cls-6" d="M1040.6,544.31c-2.63-2.22-6.32-2.66-9.76-2.7s-7,.21-10.25-1c-2.28-.83-4.54-2.94-4-5.32.26-1.23,1.19-2.19,1.82-3.28a7.27,7.27,0,0,0-.44-7.76c-1.62-2.21-6-1.33-8.63-.73h0a7.29,7.29,0,0,0-1.19,14.19c-1.43.36-1.92,2.32-1.25,3.64a6.61,6.61,0,0,0,3.39,2.69,10,10,0,0,1,3.72,2.31c2.06,2.48.87,6.15,0,9.26-.77,2.8-1.14,5.88,0,8.53s4.35,4.58,7.05,3.51c4.48-1.77,3.73-9.06,7.73-11.73,3.68-2.44,9.4.35,12.71-2.57C1044.11,551.1,1043.24,546.54,1040.6,544.31Z"/><path class="cls-2" d="M1036.51,532.44c-.12.32-3.81-1.05-8.57-1.47s-8.63.2-8.69-.14,3.84-1.46,8.8-1S1036.64,532.19,1036.51,532.44Z"/><path class="cls-2" d="M1008.18,517.71c-.36,0,1-7.24-1.06-15.86s-5.9-14.75-5.56-14.93c.11-.07,1.23,1.37,2.63,3.95a43.4,43.4,0,0,1,4,10.74,38.41,38.41,0,0,1,.86,11.44C1008.82,516,1008.3,517.74,1008.18,517.71Z"/><g class="cls-3"><path d="M992.92,555.68c-7.71-.4-14.28-7.63-13.6-15,.16-1.75.65-3.58-.08-5.19s-2.53-2.52-4.11-3.46c-10.39-6.16-15.78-20.63-12.3-31.83,0,0-3.47,5.46-2.44,16,1.39,14.08,15.23,17.56,16,22s.62,10.28,3.57,14.29S992.92,555.68,992.92,555.68Z"/></g><g class="cls-3"><path d="M1012.33,501a20.11,20.11,0,0,0-7.94-13.89c-.39-.28-.93-.54-1.31-.25s-.2,1,0,1.45c4.45,8.89,6.68,18.81,5.18,28.64l.35-.21A24.85,24.85,0,0,0,1012.33,501Z"/></g><path class="cls-7" d="M841.25,457.85a19.13,19.13,0,0,0-32.18,3.31c-1.58,3.19-2.43,7-5.3,9.12-1.86,1.36-4.24,1.73-6.46,2.33-6.87,1.86-13.3,6.84-15,13.75s2.88,15.26,10,16a21.91,21.91,0,0,0,2.1,19.57c3.74,5.69,10,8.79,17,10,9.19,11.3,25.63,15,38.47,8.12s19.59-23.4,15.26-37.31a20.13,20.13,0,0,0,9.28-38.65c1-8.42-5.28-17.09-13.62-18.66S843.34,449.63,841.25,457.85Z"/><path class="cls-2" d="M841.25,457.85a13.88,13.88,0,0,1,1.16-3.31A18.05,18.05,0,0,1,856.25,445a15.4,15.4,0,0,1,8.56,1.49,18.23,18.23,0,0,1,7.38,6.74,17.27,17.27,0,0,1,2.56,10.91l-.24-.42a20.64,20.64,0,0,1,9.43,8.29,21.23,21.23,0,0,1,3,13.37c-1,9.73-10.79,18.56-22,17.88l.54-.68a33.07,33.07,0,0,1-4.44,27.73A31.38,31.38,0,0,1,850,540.6a32,32,0,0,1-7.34,2.71,32.38,32.38,0,0,1-7.87.74,32.18,32.18,0,0,1-23.85-11.78l.34.2a30.46,30.46,0,0,1-10.14-3.54,21.22,21.22,0,0,1-7.53-7.29,22.44,22.44,0,0,1-1.78-19.47l.43.69a11.79,11.79,0,0,1-8.79-6.19,14.38,14.38,0,0,1-1.62-10.22,17.35,17.35,0,0,1,5-8.51,23.65,23.65,0,0,1,7.93-4.95c2.84-1.14,5.86-1.29,8.18-2.65s3.47-3.94,4.46-6.29a22.85,22.85,0,0,1,3.68-6.61,19.77,19.77,0,0,1,5.28-4.47,18.84,18.84,0,0,1,11.29-2.59,19.94,19.94,0,0,1,8.23,2.65,19.18,19.18,0,0,1,4.2,3.37,12.52,12.52,0,0,1,1.16,1.45,22.08,22.08,0,0,0-5.53-4.54,20,20,0,0,0-8.1-2.46,18.46,18.46,0,0,0-10.94,2.65,19.25,19.25,0,0,0-5.06,4.38,22.11,22.11,0,0,0-3.53,6.45c-1,2.35-2.11,5.14-4.73,6.7s-5.58,1.63-8.28,2.76a22.72,22.72,0,0,0-7.61,4.8,16.45,16.45,0,0,0-4.73,8.07,13.47,13.47,0,0,0,1.56,9.52,10.79,10.79,0,0,0,8,5.66l.67.07-.24.63a21.45,21.45,0,0,0,1.73,18.54,20.11,20.11,0,0,0,7.17,6.9,29.34,29.34,0,0,0,9.77,3.4l.21,0,.13.16a31.13,31.13,0,0,0,23,11.35,31.62,31.62,0,0,0,7.59-.71,31.07,31.07,0,0,0,7.05-2.61,30.19,30.19,0,0,0,10.77-9.91,32,32,0,0,0,4.36-26.8l-.23-.73.77.05c10.53.69,20-7.74,20.93-17a20.31,20.31,0,0,0-2.85-12.8,19.85,19.85,0,0,0-9-8l-.28-.12,0-.3a16.51,16.51,0,0,0-2.38-10.43,17.59,17.59,0,0,0-7-6.55,14.85,14.85,0,0,0-8.22-1.52,17.26,17.26,0,0,0-6.77,2.17,17.5,17.5,0,0,0-6.93,6.94A27.9,27.9,0,0,0,841.25,457.85Z"/><path class="cls-2" d="M863.62,502.05c0,.13-1.36.34-3.55,0a19.43,19.43,0,0,1-13.78-9.48c-1.07-1.94-1.35-3.29-1.24-3.33s.72,1.16,1.91,2.91a22.4,22.4,0,0,0,13.26,9.12C862.28,501.8,863.62,501.87,863.62,502.05Z"/><path class="cls-2" d="M808.8,531.32c0-.27,3.83,1.23,10.05.49a30.49,30.49,0,0,0,10.37-3.17,27.29,27.29,0,0,0,10-8.52c1.41-1.78,2.11-4.34,4.48-5.63a6.33,6.33,0,0,1,3.57-.44,22.3,22.3,0,0,0,3.13.3,13.49,13.49,0,0,0,9.49-4.26,15.32,15.32,0,0,0,3.71-6.21c.49-1.67.52-2.66.64-2.65s0,.25,0,.72a9.93,9.93,0,0,1-.25,2,14.66,14.66,0,0,1-3.55,6.64,14.16,14.16,0,0,1-10.07,4.76c-2.18.09-4.41-.83-6.2.08s-2.58,3.32-4.06,5.3a27.63,27.63,0,0,1-10.47,8.79,29.84,29.84,0,0,1-10.75,3,24.64,24.64,0,0,1-7.5-.43,17.26,17.26,0,0,1-2-.56C809,531.45,808.79,531.36,808.8,531.32Z"/><path class="cls-6" d="M823.09,489.91c-1,1-1.76,2.29-2.72,3.36-3.94,4.37-10.94,5.06-14.61,9.67-3.41,4.29-2.52,11.16,1.53,14.86s10.52,4.12,15.34,1.51A17.26,17.26,0,0,0,831.11,506c.57-5.45,1-10.06-2.07-14.58.55-1.34-.68-2.9-2.11-3.1A4.72,4.72,0,0,0,823.09,489.91Z"/><path class="cls-6" d="M801.88,477.13a13,13,0,0,0-7.45,6.91c-.67,1.65-.84,3.72.34,5a4.33,4.33,0,0,0,3.84,1.16,16,16,0,0,0,3.94-1.36,43.38,43.38,0,0,1,22.62-3.07l1.11-2.23c-2.45-5-8.53-7.2-14.11-7.65A23.12,23.12,0,0,0,801.88,477.13Z"/><path class="cls-6" d="M852.88,453.55c-2.22,2.63-2.66,6.32-2.7,9.77s.21,7-1,10.24c-.83,2.29-2.94,4.55-5.32,4.05-1.23-.26-2.19-1.19-3.28-1.82a7.27,7.27,0,0,0-7.76.43c-2.21,1.63-1.33,6-.73,8.64h0A7.29,7.29,0,0,0,846.31,486c.36,1.43,2.32,1.92,3.64,1.25a6.61,6.61,0,0,0,2.69-3.39,10,10,0,0,1,2.31-3.72c2.48-2.06,6.15-.87,9.26,0,2.8.76,5.88,1.13,8.53,0s4.58-4.35,3.51-7.05c-1.77-4.47-9.06-3.72-11.73-7.73-2.44-3.68.35-9.4-2.57-12.71C859.67,450,855.11,450.91,852.88,453.55Z"/><path class="cls-2" d="M841,457.64c.32.13-1,3.81-1.47,8.57s.2,8.63-.14,8.69-1.46-3.83-1-8.79S840.76,457.51,841,457.64Z"/><path class="cls-2" d="M826.28,486c0,.37-7.24-1-15.86,1.06s-14.75,5.91-14.93,5.56c-.07-.11,1.37-1.23,4-2.63a43,43,0,0,1,10.74-4,38.12,38.12,0,0,1,11.44-.87C824.55,485.33,826.31,485.85,826.28,486Z"/><g class="cls-3"><path d="M864.25,501.23c-.4,7.71-7.63,14.28-15,13.6-1.75-.16-3.58-.65-5.19.08s-2.52,2.54-3.46,4.11c-6.16,10.4-20.63,15.78-31.83,12.3,0,0,5.46,3.47,16,2.44,14.08-1.38,17.56-15.23,22.05-16s10.28-.63,14.29-3.58S864.25,501.23,864.25,501.23Z"/></g><g class="cls-3"><path d="M809.56,481.82a20.11,20.11,0,0,0-13.89,7.94c-.28.39-.54.94-.25,1.31s1,.2,1.45,0c8.89-4.46,18.81-6.69,28.64-5.19l-.21-.35A24.91,24.91,0,0,0,809.56,481.82Z"/></g><path class="cls-6" d="M928.8,525.86a26.85,26.85,0,0,0-18.29-3A23.19,23.19,0,0,0,896,532c-.87,4.49,1.84,9.18,5.78,11.49s8.85,2.51,13.31,1.5,8.57-3.15,12.59-5.33c2.85-1.55,6.05-3.68,6.21-6.92C934,529.76,931.42,527.34,928.8,525.86Z"/><g class="cls-3"><path d="M899.54,539.45l.26,2a4.52,4.52,0,0,0,3.34,2.86,12.32,12.32,0,0,0,4.53,0,54.34,54.34,0,0,0,14.62-3.59,25,25,0,0,0,11.58-9.53A40.83,40.83,0,0,0,899.54,539.45Z"/></g><path class="cls-7" d="M948.25,535.23c-13.12-7.38-29.68-2.19-42.93,5l-2.6,1.62c-3.41-3.65-6.94-7.52-8.19-12.36s.71-10.9,5.45-12.49c4-1.35,8.92.77,12.52-1.51,3-1.88,3.61-6.25,2.11-9.43s-4.65-5.31-7.9-6.66c-13.34-5.53-30.5,1.31-36.35,14.52A16.93,16.93,0,0,0,853.58,543,25,25,0,0,0,852,569.37a26.23,26.23,0,0,0,46.84,14.37c10.19,7.33,23.37,10.82,35.63,8.13s23.15-12,26.5-24.1S959.18,541.39,948.25,535.23Z"/><path class="cls-2" d="M948.25,535.23a4,4,0,0,1,.47.25l1.35.8c.58.38,1.25.92,2.07,1.53a29.77,29.77,0,0,1,2.55,2.46,28.88,28.88,0,0,1,5.23,8.31,30.41,30.41,0,0,1,2.31,13A29.78,29.78,0,0,1,957,577.08a36.59,36.59,0,0,1-14.59,12.47A38.79,38.79,0,0,1,921,592.93a48.67,48.67,0,0,1-22.39-8.78l.69-.1a26.76,26.76,0,0,1-47.79-14.64l.07.24A25.63,25.63,0,0,1,853,542.78l.11-.16.11.77c-6.89-5.4-8.64-15.82-4.2-23a18.07,18.07,0,0,1,21.52-7l-.7.28a28.9,28.9,0,0,1,4.41-6.77A30.47,30.47,0,0,1,894.82,497a26.4,26.4,0,0,1,14.33,3,14.14,14.14,0,0,1,5.34,4.81,9,9,0,0,1,1.11,6.94,7.13,7.13,0,0,1-1.68,3.13,6.54,6.54,0,0,1-3,1.78c-2.26.62-4.48.31-6.56.28a9.76,9.76,0,0,0-5.78,1.2,8.69,8.69,0,0,0-3.34,4.56,11.87,11.87,0,0,0-.5,5.56,15.91,15.91,0,0,0,1.84,5.13,43.79,43.79,0,0,0,6.42,8.19l-.45-.06c13-7.9,25.35-10.73,33.63-10a28.68,28.68,0,0,1,9.19,2.19,29.6,29.6,0,0,1,2.9,1.49,3.91,3.91,0,0,1-.76-.32c-.51-.21-1.22-.62-2.22-1a30.2,30.2,0,0,0-9.14-2c-8.17-.63-20.37,2.28-33.22,10.19l-.25.16-.21-.22a44.64,44.64,0,0,1-6.58-8.3,16.64,16.64,0,0,1-2-5.39,12.86,12.86,0,0,1,.5-6,9.59,9.59,0,0,1,3.68-5,10.59,10.59,0,0,1,6.27-1.37c2.13,0,4.29.29,6.28-.27a5.64,5.64,0,0,0,4-4.25,8,8,0,0,0-1-6.2,13.12,13.12,0,0,0-5-4.45,25.46,25.46,0,0,0-13.78-2.82,29.54,29.54,0,0,0-19.82,9.57,28.06,28.06,0,0,0-4.22,6.49l-.22.48-.48-.2A17,17,0,0,0,850,521c-4.15,6.63-2.48,16.53,3.94,21.51l.41.33-.3.45-.11.15a24.52,24.52,0,0,0-1.43,25.67l.06.11v.13c.79,11,9.2,20.64,19.22,23.12a26.51,26.51,0,0,0,26.67-9l.3-.38.39.28A47.65,47.65,0,0,0,921.06,592a37.86,37.86,0,0,0,21-3.21,36,36,0,0,0,14.36-12.12,29.34,29.34,0,0,0,5.22-15.1,30.22,30.22,0,0,0-2.15-12.83,28.79,28.79,0,0,0-5-8.27A29.15,29.15,0,0,0,948.25,535.23Z"/><path class="cls-2" d="M900.84,543c-.16.15-2-2.32-5.84-5.12a30,30,0,0,0-34.87-.42c-4,2.71-5.8,5.14-6,5a6.94,6.94,0,0,1,1.24-1.71,25.75,25.75,0,0,1,4.27-3.91,29.43,29.43,0,0,1,35.8.42,25.86,25.86,0,0,1,4.17,4A6.39,6.39,0,0,1,900.84,543Z"/><path class="cls-2" d="M880,531.53c0,.11-1.29-.21-3-1.34a16.22,16.22,0,0,1-7-13.69c.09-2,.56-3.23.68-3.2s0,1.26.11,3.19a18.67,18.67,0,0,0,2,7.23,18.93,18.93,0,0,0,4.68,5.84C879,530.79,880.07,531.36,880,531.53Z"/><g class="cls-3"><path d="M900,580.84a42.22,42.22,0,0,1,2-35.24s-8.37,10.13-7.46,20.11S900,580.84,900,580.84Z"/></g><path class="cls-2" d="M900,580.84c-.11,0-1.09-1.77-2-5a39.46,39.46,0,0,1,1.42-25.56c1.29-3.07,2.46-4.77,2.57-4.71.36.12-3.8,7.41-4.29,17.44S900.41,580.76,900,580.84Z"/><path class="cls-2" d="M871.73,570.05c.07.11-.9.83-2.71,1.52a18.75,18.75,0,0,1-14.71-.83c-1.72-.88-2.6-1.7-2.53-1.81.16-.31,4.18,2.34,9.87,2.61S871.61,569.72,871.73,570.05Z"/><path class="cls-1" d="M1140.61,483.42c-1-5.22-2.19-10.56-5.15-15s-8.11-7.75-13.38-7.07a18.19,18.19,0,0,0-35.28,2.28c-8.45-9.47-21-17-33.62-15.92s-24.61,9-30.07,20.49-3.9,26.06,4.28,35.76,22.73,13.64,34.5,8.89c1.77,6.12,7,10.76,12.85,13.27s12.3,3.2,18.64,3.68c7.88.59,16.29.8,23.1-3.2s10.81-13.76,6.1-20.1c2.74,3.63,8.42,4.12,12.32,1.78s6.11-6.84,6.72-11.34S1141.47,487.88,1140.61,483.42Z"/><path class="cls-2" d="M1140.61,483.42a2.87,2.87,0,0,1,.18.68c.11.5.24,1.17.42,2a41.76,41.76,0,0,1,.82,8,18.41,18.41,0,0,1-4.13,12,11,11,0,0,1-7.15,3.83,9.29,9.29,0,0,1-8.45-3.25l.57-.42a11.64,11.64,0,0,1,1.8,3.87,13.18,13.18,0,0,1,.23,4.44,17.18,17.18,0,0,1-3.76,8.5,18.3,18.3,0,0,1-8.21,5.63,33.86,33.86,0,0,1-10.41,1.83,99.35,99.35,0,0,1-11.1-.43,69.32,69.32,0,0,1-11.54-1.74,30.55,30.55,0,0,1-11.08-5.13,20.28,20.28,0,0,1-7.43-10.26l.72.35a31.33,31.33,0,0,1-25.47-1.48,30.61,30.61,0,0,1-10.54-8.69,29.84,29.84,0,0,1-3.6-6,31.44,31.44,0,0,1-2.25-6.7,34.48,34.48,0,0,1,4.54-26.35,38.13,38.13,0,0,1,20.5-15.36,34.42,34.42,0,0,1,12.32-1.62,36,36,0,0,1,11.62,2.9,52.58,52.58,0,0,1,17.94,13.27l-.81.23a19,19,0,0,1,7.38-11.64,18,18,0,0,1,12.16-3.66,19.18,19.18,0,0,1,10.69,4.44,18.5,18.5,0,0,1,5.82,8.56l-.35-.22a12.48,12.48,0,0,1,7.09,1.36,16.9,16.9,0,0,1,5,3.95,24.2,24.2,0,0,1,4.67,8.87,47.86,47.86,0,0,1,1.79,8.19,3.52,3.52,0,0,1-.14-.53c-.1-.39-.21-.91-.36-1.56-.32-1.37-.77-3.42-1.61-6a24.32,24.32,0,0,0-4.72-8.64,16.35,16.35,0,0,0-4.9-3.77,11.79,11.79,0,0,0-6.76-1.23l-.26,0-.08-.26a17.89,17.89,0,0,0-5.67-8.2,18.57,18.57,0,0,0-10.29-4.2,17.29,17.29,0,0,0-11.58,3.57,18.14,18.14,0,0,0-7,11.1l-.17.93-.64-.7a51.82,51.82,0,0,0-17.64-13,34.66,34.66,0,0,0-11.29-2.78,33.32,33.32,0,0,0-11.93,1.59,37.09,37.09,0,0,0-19.89,14.94,33.46,33.46,0,0,0-4.38,25.5,30.32,30.32,0,0,0,2.18,6.48,28.22,28.22,0,0,0,3.47,5.79,29.57,29.57,0,0,0,10.15,8.38,30.34,30.34,0,0,0,24.57,1.48l.55-.22.16.57a19.26,19.26,0,0,0,7,9.72,29.61,29.61,0,0,0,10.71,5,68.1,68.1,0,0,0,11.36,1.75,95.85,95.85,0,0,0,11,.47,32.72,32.72,0,0,0,10.14-1.73,17.38,17.38,0,0,0,7.87-5.33,16.46,16.46,0,0,0,3.64-8.07,12.63,12.63,0,0,0-.19-4.17,11,11,0,0,0-1.65-3.62l.56-.42a8.68,8.68,0,0,0,7.83,3,10.45,10.45,0,0,0,6.79-3.57,18,18,0,0,0,4.17-11.67,44.63,44.63,0,0,0-.64-7.95c-.13-.86-.24-1.54-.32-2.05A4.42,4.42,0,0,1,1140.61,483.42Z"/><path class="cls-2" d="M1076.22,476.62c.07,0,.34.47.77,1.42a22.45,22.45,0,0,1,1.26,4.19,28,28,0,0,1-.9,14.35,26.11,26.11,0,0,1-8.07,11.89c-2.88,2.37-5,3.24-5.08,3.13s1.89-1.28,4.55-3.73a27.55,27.55,0,0,0,7.53-11.65,30,30,0,0,0,1.19-13.85C1077,478.79,1076,476.7,1076.22,476.62Z"/><path class="cls-2" d="M1124.12,461.27c0,.19-1.5.09-3.81.42a22.8,22.8,0,0,0-15.18,9.17c-1.37,1.9-2,3.26-2.15,3.19s.23-1.53,1.49-3.63a20.38,20.38,0,0,1,15.75-9.52C1122.66,460.77,1124.14,461.15,1124.12,461.27Z"/><g class="cls-3"><path d="M1108.77,463.1c-3.63,2.73-6.54,7.95-6.54,12.15a21.86,21.86,0,0,1,19.4-14.2C1117.43,459.32,1112.4,460.38,1108.77,463.1Z"/></g><g class="cls-3"><path d="M1065.66,510.36A20.23,20.23,0,0,0,1078,481.55,29.14,29.14,0,0,1,1066,510.37"/></g><path class="cls-1" d="M876.51,533.57c-2.93-13.36-15.3-23.8-28.88-25.42s-25.62,6.21-33.7,17.24c-14.95-8.51-34.92-7.2-48.62,3.2-2.52,1.91-4.9,4.19-6.08,7.12s-.9,6.63,1.38,8.82c4,3.91,10.71,1,15.42-2.13-3,4.67-5.61,9.78-6.23,15.3s1,11.53,5.28,15.11,11.3,3.87,15.14-.14c-4.66,9.39-.75,21.58,7.45,28.12,10.59,8.45,25.47,8.14,39,7.43,5.63-.3,12.21-1.15,15-6,7.35.76,13.4-6.79,13.88-14.16s-3-14.36-6.33-20.94C872,562.1,879.44,546.93,876.51,533.57Z"/><path class="cls-2" d="M876.51,533.57a3.64,3.64,0,0,1,.17.68c.08.45.24,1.13.37,2a30.08,30.08,0,0,1-.12,8,31.8,31.8,0,0,1-4.5,12,28.09,28.09,0,0,1-13.06,11.11l.18-.47c1.39,2.72,2.87,5.6,4.12,8.78A31.14,31.14,0,0,1,866,586.15a17.39,17.39,0,0,1-3.45,11c-2.34,3.26-6.41,5.9-10.92,5.46l.45-.23c-1.69,3-5,4.67-8.27,5.39a55.23,55.23,0,0,1-10.24,1.06c-6.94.3-14.27.43-21.67-1.11s-14.9-5.14-19.53-11.86a25.81,25.81,0,0,1-4.47-11.24,21.16,21.16,0,0,1,1.81-12.23l.9.63a11.23,11.23,0,0,1-10.51,2.78,12.59,12.59,0,0,1-5.2-2.45,14.51,14.51,0,0,1-3.67-4.5,20.2,20.2,0,0,1-1.49-14.12,40.59,40.59,0,0,1,5.81-12.66l.77.77a31.33,31.33,0,0,1-5.43,2.88,14,14,0,0,1-6.06,1.17,7.28,7.28,0,0,1-5.44-3,8.61,8.61,0,0,1-1.32-6c.56-4.18,3.58-7.25,6.54-9.55a44.4,44.4,0,0,1,9.74-5.61c13.73-5.67,28.88-4.16,39.79,2.16l-.59.12A49,49,0,0,1,826.3,513a33.45,33.45,0,0,1,14.87-5.24,31.68,31.68,0,0,1,13.69,1.81A35.24,35.24,0,0,1,865,515.29a32.85,32.85,0,0,1,9.83,12.82,24.73,24.73,0,0,1,1.34,4c.23.93.31,1.42.31,1.42s-.17-.47-.44-1.39a29.09,29.09,0,0,0-1.46-4,33.28,33.28,0,0,0-9.9-12.52,35.1,35.1,0,0,0-10.06-5.55,31.16,31.16,0,0,0-13.41-1.68,32.92,32.92,0,0,0-14.5,5.22,48.28,48.28,0,0,0-12.45,12l-.24.33-.35-.2c-10.69-6.14-25.54-7.57-38.94-2a43.27,43.27,0,0,0-9.49,5.49c-2.88,2.23-5.65,5.16-6.11,8.84a7.49,7.49,0,0,0,1.13,5.2,6.2,6.2,0,0,0,4.63,2.5c3.77.16,7.49-1.78,10.81-3.89l2.14-1.37-1.37,2.13A39.49,39.49,0,0,0,770.84,555a19.13,19.13,0,0,0,1.39,13.34,12,12,0,0,0,8.12,6.38,10.13,10.13,0,0,0,9.47-2.45l2.44-2.55-1.54,3.18A19.92,19.92,0,0,0,789,584.5a24.81,24.81,0,0,0,4.27,10.77c4.41,6.42,11.71,10,18.85,11.45s14.49,1.43,21.4,1.15a55.42,55.42,0,0,0,10.06-1c3.17-.7,6.17-2.25,7.7-4.92l.15-.26.3,0c4.08.42,7.87-2,10.13-5.06a16.53,16.53,0,0,0,3.32-10.49A30.17,30.17,0,0,0,863,576a96.14,96.14,0,0,0-4-8.74l-.17-.34.35-.14A27.53,27.53,0,0,0,872,556a31.61,31.61,0,0,0,4.58-11.77,31.26,31.26,0,0,0,.3-7.93l-.28-2A5.22,5.22,0,0,1,876.51,533.57Z"/><path class="cls-2" d="M846.43,564.73a7.71,7.71,0,0,1-2-.49,17.09,17.09,0,0,1-2.25-.83,28,28,0,0,1-2.9-1.32,43.38,43.38,0,0,1-7-4.45,49.51,49.51,0,0,1-7.25-7.13,48.78,48.78,0,0,1-5.49-8.56,42.17,42.17,0,0,1-2.93-7.76,28.22,28.22,0,0,1-.7-3.11,16.81,16.81,0,0,1-.34-2.37,6.84,6.84,0,0,1-.08-2.05c.21,0,.5,2.87,1.88,7.31a48.83,48.83,0,0,0,3.09,7.52,48.38,48.38,0,0,0,12.47,15.34,48.54,48.54,0,0,0,6.72,4.56C843.72,563.65,846.5,564.52,846.43,564.73Z"/><path class="cls-2" d="M834.31,596.54c-.14-.13,1.17-1.53,2.83-4.09a33.46,33.46,0,0,0,5.06-22.72c-.42-3-1-4.85-.83-4.91s1,1.7,1.61,4.77a30.11,30.11,0,0,1-5.18,23.31C835.92,595.41,834.39,596.62,834.31,596.54Z"/><g class="cls-3"><path d="M815.75,528.06a31.51,31.51,0,0,0,2.73,16A38.79,38.79,0,0,0,801,561.19a34.58,34.58,0,0,1,13.39-11.57,6.73,6.73,0,0,1,4-.91,7.34,7.34,0,0,1,2.77,1.37c3.84,2.62,8.54,5.54,12.39,8.16-3.8-3.9-8.49-8.13-11.61-12.59s-5.41-12.19-6.12-17.59"/></g><path class="cls-2" d="M795.15,532.86c.09.34-4.76,1.59-10.13,4.48s-9.15,6.17-9.37,5.92,3.28-4,8.84-6.91S795.12,532.59,795.15,532.86Z"/><path class="cls-2" d="M798.61,562.7c.24.2-1.43,2.64-3.72,5.47s-4.36,5-4.6,4.76,1.43-2.64,3.73-5.47S798.37,562.5,798.61,562.7Z"/><polygon class="cls-5" points="740.26 568.96 822.47 1079.44 1116.51 1079.44 1180.44 568.96 740.26 568.96"/><polygon class="cls-6" points="769.17 584.78 832.54 1079.56 857.62 1079.56 804.46 584.78 769.17 584.78"/><polygon class="cls-6" points="835.57 584.66 888.21 1079.44 913.3 1079.44 870.87 584.66 835.57 584.66"/><polygon class="cls-6" points="908.03 584.66 937.84 1079.44 962.93 1079.44 943.32 584.66 908.03 584.66"/><polygon class="cls-6" points="978.87 584.66 989.08 1079.44 1014.17 1079.44 1014.17 584.66 978.87 584.66"/><polygon class="cls-6" points="1043.04 584.66 1036.79 1079.44 1061.88 1079.44 1078.33 584.66 1043.04 584.66"/><polygon class="cls-6" points="1119.04 584.66 1082.87 1079.44 1107.96 1079.44 1154.33 584.66 1119.04 584.66"/><path class="cls-2" d="M741.19,569l440.18-.49h.55l-.06.55c-16,127.6-34.82,278.35-54.94,439.23-3,24-6,47.82-8.93,71.26l-.06.49h-.49l-294,0H823l-.07-.43c-48.26-301.58-81-506.09-81.7-510.56.72,4.47,33.85,208.92,82.71,510.4l-.5-.43,294,0-.56.49c2.94-23.44,5.92-47.24,8.93-71.26,20.17-160.87,39.08-311.61,55.08-439.21l.48.54Z"/><path class="cls-4" d="M1186.29,584.66H734.11a12,12,0,0,1-11.94-11.95h0a12,12,0,0,1,11.94-11.94h452.18a12,12,0,0,1,11.94,11.94h0A12,12,0,0,1,1186.29,584.66Z"/><path class="cls-2" d="M1186.29,584.66c0-.06.86,0,2.5-.33a11.89,11.89,0,0,0,8.83-14.79,11.71,11.71,0,0,0-4.2-6.15,12,12,0,0,0-8.11-2.4l-104.94.18-346.23.16a11.39,11.39,0,1,0,.12,22.77h61l91.93,0,155.66.12,104.94.18,28.53.1,7.42.06c1.67,0,2.53.06,2.53.06s-.86,0-2.53.05l-7.42.06-28.53.1-104.94.18-155.66.12-91.93,0h-61a12.51,12.51,0,1,1-.12-25l346.23.16,104.94.18a12.42,12.42,0,0,1,8.34,2.53,12.07,12.07,0,0,1,1.55,17.73,11.94,11.94,0,0,1-6.39,3.63,10.23,10.23,0,0,1-1.88.21Z"/><g id="button-reserver"><rect id="bg-button" class="cls-8" x="839.44" y="765.56" width="249.11" height="94.91" rx="22.1"/><g id="content-button"><text class="cls-9" transform="translate(864.69 826.3)">RÉSE<tspan class="cls-10" x="96.68" y="0">R</tspan><tspan x="123.05" y="0">VER</tspan></text><text class="cls-11" transform="translate(864.69 826.3)">RÉSE<tspan class="cls-10" x="96.68" y="0">R</tspan><tspan x="123.05" y="0">VER</tspan></text></g></g></g></svg>